<svg xmlns="http://www.w3.org/2000/svg" xmlns:xlink="http://www.w3.org/1999/xlink" xmlns:lucid="lucid" width="577.33" height="1009.33"><g transform="translate(-575.3333333333334 -63.333333333333336)" lucid:page-tab-id="BF3CKJu7X5cVV"><path d="M768 112c0 26.5-42.98 48-96 48s-96-21.5-96-48 42.98-48 96-48 96 21.5 96 48z" stroke="#1976d2" stroke-width="1.33" fill="#e3f2fd"/><use xlink:href="#a" transform="matrix(1,0,0,1,576,64) translate(42.20849609375 55.81494140625)"/><path d="M576 250.67A10.67 10.67 0 0 1 586.67 240h170.66A10.67 10.67 0 0 1 768 250.67v74.66A10.67 10.67 0 0 1 757.33 336H586.67A10.67 10.67 0 0 1 576 325.33z" stroke="#1976d2" stroke-width="1.33" fill="#2196f3"/><use xlink:href="#b" transform="matrix(1,0,0,1,596,240) translate(17.34228515625 55.81494140625)"/><use xlink:href="#c" transform="matrix(1,0,0,1,596,240) translate(91.89306640625 55.81494140625)"/><path d="M576 426.67A10.67 10.67 0 0 1 586.67 416h170.66A10.67 10.67 0 0 1 768 426.67v74.66A10.67 10.67 0 0 1 757.33 512H586.67A10.67 10.67 0 0 1 576 501.33z" stroke="#f57c00" stroke-width="1.33" fill="#ff9800"/><use xlink:href="#d" transform="matrix(1,0,0,1,596,416) translate(2.65234375 55.81494140625)"/><use xlink:href="#e" transform="matrix(1,0,0,1,596,416) translate(99.2568359375 55.81494140625)"/><path d="M768 707.2c0 7.07-42.98 12.8-96 12.8s-96-5.73-96-12.8V604.8c0-7.07 42.98-12.8 96-12.8s96 5.73 96 12.8z" stroke="#2e7d32" stroke-width="1.33" fill="#4caf50"/><path d="M768 604.8c0 7.07-42.98 12.8-96 12.8s-96-5.73-96-12.8" stroke="#2e7d32" stroke-width="1.33" fill="none"/><use xlink:href="#f" transform="matrix(1,0,0,1,586,617.6) translate(19.98388671875 52.81494140625)"/><use xlink:href="#g" transform="matrix(1,0,0,1,586,617.6) translate(120.24072265625 52.81494140625)"/><path d="M576 810.67A10.67 10.67 0 0 1 586.67 800h170.66A10.67 10.67 0 0 1 768 810.67v74.66A10.67 10.67 0 0 1 757.33 896H586.67A10.67 10.67 0 0 1 576 885.33z" stroke="#7b1fa2" stroke-width="1.33" fill="#9c27b0"/><use xlink:href="#h" transform="matrix(1,0,0,1,596,800) translate(44.84228515625 44.91591796875)"/><use xlink:href="#i" transform="matrix(1,0,0,1,596,800) translate(23.44921875 66.71396484375)"/><path d="M576 986.67A10.67 10.67 0 0 1 586.67 976h170.66A10.67 10.67 0 0 1 768 986.67v74.66a10.67 10.67 0 0 1-10.67 10.67H586.67a10.67 10.67 0 0 1-10.67-10.67z" stroke="#d32f2f" stroke-width="1.33" fill="#f44336"/><use xlink:href="#h" transform="matrix(1,0,0,1,596,976) translate(44.84228515625 44.91591796875)"/><use xlink:href="#j" transform="matrix(1,0,0,1,596,976) translate(19.15234375 66.71396484375)"/><path d="M928 426.67A10.67 10.67 0 0 1 938.67 416h202.66a10.67 10.67 0 0 1 10.67 10.67v74.66a10.67 10.67 0 0 1-10.67 10.67H938.67A10.67 10.67 0 0 1 928 501.33z" stroke="#ff9800" stroke-width="1.33" fill="#ffe0b2"/><use xlink:href="#k" transform="matrix(1,0,0,1,948,416) translate(72.457275390625 43.950439453125)"/><use xlink:href="#l" transform="matrix(1,0,0,1,948,416) translate(1.708251953125 65.047119140625)"/><path d="M928 610.67A10.67 10.67 0 0 1 938.67 600h202.66a10.67 10.67 0 0 1 10.67 10.67v90.66a10.67 10.67 0 0 1-10.67 10.67H938.67A10.67 10.67 0 0 1 928 701.33z" stroke="#4caf50" stroke-width="1.33" fill="#c8e6c9"/><use xlink:href="#m" transform="matrix(1,0,0,1,948,600) translate(10.150634765625 51.950439453125)"/><use xlink:href="#n" transform="matrix(1,0,0,1,948,600) translate(94.648681640625 51.950439453125)"/><use xlink:href="#o" transform="matrix(1,0,0,1,948,600) translate(38.140380859375 73.047119140625)"/><use xlink:href="#p" transform="matrix(1,0,0,1,948,600) translate(95.158935546875 73.047119140625)"/><path d="M928 810.67A10.67 10.67 0 0 1 938.67 800h202.66a10.67 10.67 0 0 1 10.67 10.67v74.66a10.67 10.67 0 0 1-10.67 10.67H938.67A10.67 10.67 0 0 1 928 885.33z" stroke="#9c27b0" stroke-width="1.33" fill="#e1bee7"/><use xlink:href="#q" transform="matrix(1,0,0,1,948,800) translate(11.0458984375 43.950439453125)"/><use xlink:href="#r" transform="matrix(1,0,0,1,948,800) translate(106.42626953125 43.950439453125)"/><use xlink:href="#s" transform="matrix(1,0,0,1,948,800) translate(60.832763671875 65.047119140625)"/><path d="M928 986.67A10.67 10.67 0 0 1 938.67 976h202.66a10.67 10.67 0 0 1 10.67 10.67v74.66a10.67 10.67 0 0 1-10.67 10.67H938.67a10.67 10.67 0 0 1-10.67-10.67z" stroke="#f44336" stroke-width="1.33" fill="#ffcdd2"/><use xlink:href="#t" transform="matrix(1,0,0,1,948,976) translate(40.255615234375 43.950439453125)"/><use xlink:href="#u" transform="matrix(1,0,0,1,948,976) translate(51.8662109375 65.047119140625)"/><use xlink:href="#v" transform="matrix(1,0,0,1,948,976) translate(69.81787109375 65.047119140625)"/><path d="M673.98 216.6H670v-53.93H674z" stroke="#000" stroke-width=".05"/><path d="M672 160.67h1.63l.35-.02v2.07H670v-2.1z"/><path d="M672 160.67h1.63l.35-.02v2.07H670v-2.1z" stroke="#000" stroke-width=".05"/><path d="M672 232.86l-4.63-14.27h9.26z"/><path d="M672 239.25l-7.35-22.63h14.7zm-1.92-18.68l1.92 5.9 1.92-5.9z" stroke="#000" stroke-width=".05"/><use xlink:href="#w" transform="matrix(1,0,0,1,672,191.2097446383856) translate(0 15.2890625)"/><path d="M673.98 392.6H670v-53.93H674z" stroke="#000" stroke-width=".05"/><path d="M673.98 338.72H670v-2.05H674z"/><path d="M673.98 338.72H670v-2.05H674z" stroke="#000" stroke-width=".05"/><path d="M672 408.86l-4.63-14.26h9.26z"/><path d="M672 415.25l-7.35-22.63h14.7zm-1.92-18.68l1.92 5.9 1.92-5.9z" stroke="#000" stroke-width=".05"/><use xlink:href="#w" transform="matrix(1,0,0,1,672,367.209716796875) translate(0 15.2890625)"/><path d="M673.98 568.6H670v-53.93H674z" stroke="#000" stroke-width=".05"/><path d="M673.98 514.72H670v-2.05H674z"/><path d="M673.98 514.72H670v-2.05H674z" stroke="#000" stroke-width=".05"/><path d="M672 584.86l-4.63-14.26h9.26z"/><path d="M672 591.25l-7.35-22.63h14.7zm-1.92-18.68l1.92 5.9 1.92-5.9z" stroke="#000" stroke-width=".05"/><use xlink:href="#w" transform="matrix(1,0,0,1,672,543.2096890287289) translate(0 15.2890625)"/><path d="M673.98 776.6H670v-53.93H674z" stroke="#000" stroke-width=".05"/><path d="M672 720.67h1.98v2.05H670v-2.1z"/><path d="M672 720.67h1.98v2.05H670v-2.1z" stroke="#000" stroke-width=".05"/><path d="M672 792.86l-4.63-14.26h9.26z"/><path d="M672 799.25l-7.35-22.63h14.7zm-1.92-18.68l1.92 5.9 1.92-5.9z" stroke="#000" stroke-width=".05"/><use xlink:href="#w" transform="matrix(1,0,0,1,672,751.209744565021) translate(0 15.2890625)"/><path d="M673.98 952.6H670v-53.93H674z" stroke="#000" stroke-width=".05"/><path d="M673.98 898.72H670v-2.05H674z"/><path d="M673.98 898.72H670v-2.05H674z" stroke="#000" stroke-width=".05"/><path d="M672 968.86l-4.63-14.26h9.26z"/><path d="M672 975.25l-7.35-22.63h14.7zm-1.92-18.68l1.92 5.9 1.92-5.9z" stroke="#000" stroke-width=".05"/><use xlink:href="#w" transform="matrix(1,0,0,1,672,927.209716796875) translate(0 15.2890625)"/><path d="M926 465.3H788.58v-2.6H926z" stroke="#ff9800" stroke-width=".05" fill="#ff9800"/><path d="M927.33 465.3h-1.36v-2.6h1.36z" fill="#ff9800"/><path d="M927.33 465.3h-1.36v-2.6h1.36z" stroke="#ff9800" stroke-width=".05" fill="#ff9800"/><path d="M787.25 468.63L772.98 464l14.27-4.63z" fill="#ff9800"/><path d="M788.56 470.44l-19.8-6.44 19.8-6.44zM777.22 464l8.72 2.83v-5.66z" stroke="#ff9800" stroke-width=".05" fill="#ff9800"/><use xlink:href="#w" transform="matrix(1,0,0,1,848,455.209716796875) translate(0 15.2890625)"/><path d="M926 657.3H788.58v-2.6H926z" stroke="#4caf50" stroke-width=".05" fill="#4caf50"/><path d="M927.33 657.3h-1.36v-2.6h1.36z" fill="#4caf50"/><path d="M927.33 657.3h-1.36v-2.6h1.36z" stroke="#4caf50" stroke-width=".05" fill="#4caf50"/><path d="M787.25 660.63L772.98 656l14.27-4.63z" fill="#4caf50"/><path d="M788.56 662.44l-19.8-6.44 19.8-6.44zM777.22 656l8.72 2.83v-5.66z" stroke="#4caf50" stroke-width=".05" fill="#4caf50"/><use xlink:href="#w" transform="matrix(1,0,0,1,848.0000100021182,647.209716796875) translate(0 15.2890625)"/><path d="M926 849.3H788.58v-2.6H926z" stroke="#9c27b0" stroke-width=".05" fill="#9c27b0"/><path d="M927.33 849.3h-1.36v-2.6h1.36z" fill="#9c27b0"/><path d="M927.33 849.3h-1.36v-2.6h1.36z" stroke="#9c27b0" stroke-width=".05" fill="#9c27b0"/><path d="M787.25 852.63L772.98 848l14.27-4.63z" fill="#9c27b0"/><path d="M788.56 854.44l-19.8-6.44 19.8-6.44zM777.22 848l8.72 2.83v-5.66z" stroke="#9c27b0" stroke-width=".05" fill="#9c27b0"/><g><use xlink:href="#w" transform="matrix(1,0,0,1,848,839.209716796875) translate(0 15.2890625)"/></g><path d="M926 1025.3H788.58v-2.6H926z" stroke="#f44336" stroke-width=".05" fill="#f44336"/><path d="M927.33 1025.3h-1.36v-2.6h1.36z" fill="#f44336"/><path d="M927.33 1025.3h-1.36v-2.6h1.36z" stroke="#f44336" stroke-width=".05" fill="#f44336"/><path d="M787.25 1028.63l-14.27-4.63 14.27-4.63z" fill="#f44336"/><path d="M788.56 1030.44l-19.8-6.44 19.8-6.44zm-11.34-6.44l8.72 2.83v-5.66z" stroke="#f44336" stroke-width=".05" fill="#f44336"/><g><use xlink:href="#w" transform="matrix(1,0,0,1,848,1015.209716796875) translate(0 15.2890625)"/></g><defs><path d="M1354-543c1 369-250 563-631 563-373 0-600-186-600-548v-881h295v858c-1 216 102 340 313 340 215 1 328-131 328-350v-848h295v866" id="x"/><path d="M440-330c0 98 31 152 123 154 22 0 53-5 94-14v174C588 7 509 18 420 18c-170-1-258-95-258-272v-638H25v-190h151l88-254h176v254h205v190H440v562" id="y"/><path d="M143-1277v-207h281v207H143zM143 0v-1082h281V0H143" id="z"/><path d="M143 0v-1484h281V0H143" id="A"/><path d="M573-916c-112 0-200 14-200 111 0 88 73 97 168 120 199 47 392 70 479 217 24 40 35 90 35 152 0 237-220 338-484 336-282-2-439-78-499-290l247-37c36 115 92 141 252 141 130 0 226-17 226-124 0-35-14-62-43-82s-79-38-148-52c-159-31-266-61-321-88-100-50-170-123-170-263 0-232 201-328 458-328 245 0 416 95 457 292l-249 26c-21-98-82-131-208-131" id="B"/><path d="M972 12c-145 0-202-73-217-205h-6C670-51 552 20 393 20 187 20 58-100 60-306c3-242 172-345 427-346l233-4c5-152-16-266-158-264-112 2-147 49-160 153l-293-14c38-217 204-321 465-321 262 0 427 133 427 388v394c3 101 7 160 89 160 21 0 42-2 62-6v152c-57 15-108 27-180 26zM483-176c165 0 247-140 237-325-89 1-231-1-283 23-55 25-84 70-84 150 0 94 44 152 130 152" id="C"/><path d="M375-487c-1 185 60 319 225 319 99 0 162-43 188-129l265 23C976-78 821 20 586 20 247 19 80-194 80-546c0-344 176-559 510-556 341 3 483 247 479 615H375zm422-176c-8-153-68-262-211-262-144 0-206 112-209 262h420" id="D"/><path d="M483 20c-243 0-356-160-356-415v-687h281v607c0 190 64 285 192 285 148-1 227-151 227-312v-580h281c4 356-9 741 8 1082H848c-8-96-12-168-12-215h-5C765-71 670 20 483 20" id="E"/><path d="M646-868c-165 0-222 146-222 337V0H143c-4-356 8-741-8-1082h268c4 15 14 211 13 231h4c48-123 63-177 149-229 44-27 147-31 197-8v235c-45-10-85-15-120-15" id="F"/><g id="a"><use transform="matrix(0.0107421875,0,0,0.0107421875,0,0)" xlink:href="#x"/><use transform="matrix(0.0107421875,0,0,0.0107421875,15.8876953125,0)" xlink:href="#y"/><use transform="matrix(0.0107421875,0,0,0.0107421875,23.2138671875,0)" xlink:href="#z"/><use transform="matrix(0.0107421875,0,0,0.0107421875,29.326171875,0)" xlink:href="#A"/><use transform="matrix(0.0107421875,0,0,0.0107421875,35.4384765625,0)" xlink:href="#z"/><use transform="matrix(0.0107421875,0,0,0.0107421875,41.55078125,0)" xlink:href="#B"/><use transform="matrix(0.0107421875,0,0,0.0107421875,53.7861328125,0)" xlink:href="#C"/><use transform="matrix(0.0107421875,0,0,0.0107421875,66.021484375,0)" xlink:href="#y"/><use transform="matrix(0.0107421875,0,0,0.0107421875,73.34765625,0)" xlink:href="#D"/><use transform="matrix(0.0107421875,0,0,0.0107421875,85.5830078125,0)" xlink:href="#E"/><use transform="matrix(0.0107421875,0,0,0.0107421875,99.021484375,0)" xlink:href="#F"/></g><path fill="#fff" d="M432-1181v436h721v228H432V0H137v-1409h1039v228H432" id="G"/><path fill="#fff" d="M143 0v-1484h281V0H143" id="H"/><path fill="#fff" d="M483 20c-243 0-356-160-356-415v-687h281v607c0 190 64 285 192 285 148-1 227-151 227-312v-580h281c4 356-9 741 8 1082H848c-8-96-12-168-12-215h-5C765-71 670 20 483 20" id="I"/><path fill="#fff" d="M440-330c0 98 31 152 123 154 22 0 53-5 94-14v174C588 7 509 18 420 18c-170-1-258-95-258-272v-638H25v-190h151l88-254h176v254h205v190H440v562" id="J"/><path fill="#fff" d="M375-487c-1 185 60 319 225 319 99 0 162-43 188-129l265 23C976-78 821 20 586 20 247 19 80-194 80-546c0-344 176-559 510-556 341 3 483 247 479 615H375zm422-176c-8-153-68-262-211-262-144 0-206 112-209 262h420" id="K"/><path fill="#fff" d="M646-868c-165 0-222 146-222 337V0H143c-4-356 8-741-8-1082h268c4 15 14 211 13 231h4c48-123 63-177 149-229 44-27 147-31 197-8v235c-45-10-85-15-120-15" id="L"/><g id="b"><use transform="matrix(0.0107421875,0,0,0.0107421875,0,0)" xlink:href="#G"/><use transform="matrix(0.0107421875,0,0,0.0107421875,13.4384765625,0)" xlink:href="#H"/><use transform="matrix(0.0107421875,0,0,0.0107421875,19.55078125,0)" xlink:href="#I"/><use transform="matrix(0.0107421875,0,0,0.0107421875,32.9892578125,0)" xlink:href="#J"/><use transform="matrix(0.0107421875,0,0,0.0107421875,40.3154296875,0)" xlink:href="#J"/><use transform="matrix(0.0107421875,0,0,0.0107421875,47.6416015625,0)" xlink:href="#K"/><use transform="matrix(0.0107421875,0,0,0.0107421875,59.876953125,0)" xlink:href="#L"/></g><path fill="#fff" d="M1133 0l-125-360H471L346 0H51l514-1409h348L1425 0h-292zM739-1192c-50 182-61 194-202 610h405c-68-203-141-401-203-610" id="M"/><path fill="#fff" d="M408-1082c8 36 12 125 12 176h4c63-133 179-199 346-199 126 0 224 48 293 145s104 235 104 414c0 322-121 566-415 566-162 0-274-77-328-192h-6c11 149 4 424 6 597H143V-833c0-102-3-185-8-249h273zm243 172c-175 0-232 173-231 372 0 117 20 206 60 270s96 96 169 96c150 0 225-125 225-374 0-243-74-364-223-364" id="N"/><g id="c"><use transform="matrix(0.0107421875,0,0,0.0107421875,0,0)" xlink:href="#M"/><use transform="matrix(0.0107421875,0,0,0.0107421875,15.8876953125,0)" xlink:href="#N"/><use transform="matrix(0.0107421875,0,0,0.0107421875,29.326171875,0)" xlink:href="#N"/></g><path fill="#fff" d="M143-1277v-207h281v207H143zM143 0v-1082h281V0H143" id="O"/><path fill="#fff" d="M770-1102c286 0 397 243 397 557 0 320-120 562-415 565-165 2-272-80-330-194 1 32-7 151-14 174H135c5-62 8-144 8-247v-1237h281c-1 197 2 398-4 590h4c63-139 179-208 346-208zM420-536c0 197 55 364 231 364 149 0 223-124 223-373 0-123-18-214-54-273s-92-89-167-89c-179 0-233 167-233 371" id="P"/><path fill="#fff" d="M972 12c-145 0-202-73-217-205h-6C670-51 552 20 393 20 187 20 58-100 60-306c3-242 172-345 427-346l233-4c5-152-16-266-158-264-112 2-147 49-160 153l-293-14c38-217 204-321 465-321 262 0 427 133 427 388v394c3 101 7 160 89 160 21 0 42-2 62-6v152c-57 15-108 27-180 26zM483-176c165 0 247-140 237-325-89 1-231-1-283 23-55 25-84 70-84 150 0 94 44 152 130 152" id="Q"/><path fill="#fff" d="M573-916c-112 0-200 14-200 111 0 88 73 97 168 120 199 47 392 70 479 217 24 40 35 90 35 152 0 237-220 338-484 336-282-2-439-78-499-290l247-37c36 115 92 141 252 141 130 0 226-17 226-124 0-35-14-62-43-82s-79-38-148-52c-159-31-266-61-321-88-100-50-170-123-170-263 0-232 201-328 458-328 245 0 416 95 457 292l-249 26c-21-98-82-131-208-131" id="R"/><g id="d"><use transform="matrix(0.0107421875,0,0,0.0107421875,0,0)" xlink:href="#G"/><use transform="matrix(0.0107421875,0,0,0.0107421875,13.4384765625,0)" xlink:href="#O"/><use transform="matrix(0.0107421875,0,0,0.0107421875,19.55078125,0)" xlink:href="#L"/><use transform="matrix(0.0107421875,0,0,0.0107421875,28.1123046875,0)" xlink:href="#K"/><use transform="matrix(0.0107421875,0,0,0.0107421875,40.34765625,0)" xlink:href="#P"/><use transform="matrix(0.0107421875,0,0,0.0107421875,53.7861328125,0)" xlink:href="#Q"/><use transform="matrix(0.0107421875,0,0,0.0107421875,66.021484375,0)" xlink:href="#R"/><use transform="matrix(0.0107421875,0,0,0.0107421875,78.2568359375,0)" xlink:href="#K"/></g><path fill="#fff" d="M651-891c-148 1-227 151-227 312V0H143v-1484h281c-2 207 6 422-8 618h4c67-145 160-236 348-236 243 0 356 161 356 416V0H844v-606c0-190-64-285-193-285" id="S"/><g id="e"><use transform="matrix(0.0107421875,0,0,0.0107421875,0,0)" xlink:href="#M"/><use transform="matrix(0.0107421875,0,0,0.0107421875,15.8876953125,0)" xlink:href="#I"/><use transform="matrix(0.0107421875,0,0,0.0107421875,29.326171875,0)" xlink:href="#J"/><use transform="matrix(0.0107421875,0,0,0.0107421875,36.65234375,0)" xlink:href="#S"/></g><path fill="#fff" d="M627-1102c355 0 544 203 544 560 0 345-207 562-550 562C283 20 80-201 80-542c0-343 204-560 547-560zM375-542c0 208 60 370 243 370 173 0 259-123 259-370 0-129-21-222-63-280s-103-87-183-87c-171 0-256 122-256 367" id="T"/><g id="f"><use transform="matrix(0.0107421875,0,0,0.0107421875,0,0)" xlink:href="#G"/><use transform="matrix(0.0107421875,0,0,0.0107421875,13.4384765625,0)" xlink:href="#O"/><use transform="matrix(0.0107421875,0,0,0.0107421875,19.55078125,0)" xlink:href="#L"/><use transform="matrix(0.0107421875,0,0,0.0107421875,28.1123046875,0)" xlink:href="#K"/><use transform="matrix(0.0107421875,0,0,0.0107421875,40.34765625,0)" xlink:href="#R"/><use transform="matrix(0.0107421875,0,0,0.0107421875,52.5830078125,0)" xlink:href="#J"/><use transform="matrix(0.0107421875,0,0,0.0107421875,59.9091796875,0)" xlink:href="#T"/><use transform="matrix(0.0107421875,0,0,0.0107421875,73.34765625,0)" xlink:href="#L"/><use transform="matrix(0.0107421875,0,0,0.0107421875,81.9091796875,0)" xlink:href="#K"/></g><path fill="#fff" d="M647-1409c461-3 750 240 746 694-4 440-251 715-686 715H137v-1409h510zm35 1181c265 1 414-208 414-487 0-298-161-467-455-466H432v953h250" id="U"/><path fill="#fff" d="M1036-741c206 23 350 127 350 339 0 282-238 402-544 402H137v-1409h645c172 0 302 29 390 89s133 148 133 265c0 179-106 282-269 314zM770-841c149 0 238-41 238-174 0-139-94-175-240-175H432v349h338zm47 622c171 0 273-51 273-206 0-132-95-198-284-198H432v404h385" id="V"/><g id="g"><use transform="matrix(0.0107421875,0,0,0.0107421875,0,0)" xlink:href="#U"/><use transform="matrix(0.0107421875,0,0,0.0107421875,15.8876953125,0)" xlink:href="#V"/></g><path fill="#fff" d="M381-711c0 302 128 499 414 499 178 0 302-89 371-268l257 97c-99 251-300 400-628 403C342 25 84-257 84-711c0-457 243-719 698-719 334 0 540 138 623 392l-260 71c-40-136-182-233-357-231-284 2-407 189-407 487" id="W"/><path fill="#fff" d="M500-1102c166 0 271 75 329 191-3-189-2-382-2-573h281v1248c0 67 3 145 8 236H844c-6-25-16-141-15-176h-4C764-45 649 20 479 20c-126 0-223-50-292-148S84-363 84-540c0-321 122-562 416-562zm331 555c0-200-54-364-231-364-75 0-131 30-168 91s-55 155-55 280c0 245 74 368 221 368 74 0 131-33 172-98s61-157 61-277" id="X"/><g id="h"><use transform="matrix(0.0107421875,0,0,0.0107421875,0,0)" xlink:href="#W"/><use transform="matrix(0.0107421875,0,0,0.0107421875,15.8876953125,0)" xlink:href="#H"/><use transform="matrix(0.0107421875,0,0,0.0107421875,22,0)" xlink:href="#T"/><use transform="matrix(0.0107421875,0,0,0.0107421875,35.4384765625,0)" xlink:href="#I"/><use transform="matrix(0.0107421875,0,0,0.0107421875,48.876953125,0)" xlink:href="#X"/></g><path fill="#fff" d="M768-1103c243 0 356 161 356 416V0H844v-607c0-190-64-285-193-285-148 1-227 151-227 312V0H143c-4-356 9-741-8-1082h268c4 18 14 191 13 215h4c67-145 160-236 348-236" id="Y"/><path fill="#fff" d="M1079-360C1041-124 864 17 594 20 261 23 80-197 80-535c0-344 180-567 518-567 257 0 435 142 473 361l-283 14c-16-106-75-182-196-182-145 0-217 121-217 363 0 249 74 374 221 374 120 0 188-82 201-201" id="Z"/><g id="i"><use transform="matrix(0.0107421875,0,0,0.0107421875,0,0)" xlink:href="#G"/><use transform="matrix(0.0107421875,0,0,0.0107421875,13.4384765625,0)" xlink:href="#I"/><use transform="matrix(0.0107421875,0,0,0.0107421875,26.876953125,0)" xlink:href="#Y"/><use transform="matrix(0.0107421875,0,0,0.0107421875,40.3154296875,0)" xlink:href="#Z"/><use transform="matrix(0.0107421875,0,0,0.0107421875,52.55078125,0)" xlink:href="#J"/><use transform="matrix(0.0107421875,0,0,0.0107421875,59.876953125,0)" xlink:href="#O"/><use transform="matrix(0.0107421875,0,0,0.0107421875,65.9892578125,0)" xlink:href="#T"/><use transform="matrix(0.0107421875,0,0,0.0107421875,79.427734375,0)" xlink:href="#Y"/><use transform="matrix(0.0107421875,0,0,0.0107421875,92.8662109375,0)" xlink:href="#R"/></g><path fill="#fff" d="M1307 0c4-408-9-758 10-1161C1199-702 1088-421 958 0H748C626-385 495-761 387-1161c24 414 7 744 12 1161H137v-1409h395c107 351 232 685 322 1053 98-360 215-702 322-1053h393V0h-262" id="aa"/><path fill="#fff" d="M1108-33c0 316-189 467-512 467-247 0-427-94-467-291l281-33c20 86 88 139 194 139 188 0 233-141 225-343-1-35 4-75 0-107C767-68 651-2 481-2 198-2 84-238 84-550c0-320 120-553 418-553 157 0 266 65 327 195h5c-1-34 7-149 14-174h266c-12 332-6 705-6 1049zM600-197c173 0 231-162 231-359 0-191-60-354-229-354-150 0-225 120-225 360 0 235 74 353 223 353" id="ab"/><g id="j"><use transform="matrix(0.0107421875,0,0,0.0107421875,0,0)" xlink:href="#aa"/><use transform="matrix(0.0107421875,0,0,0.0107421875,18.326171875,0)" xlink:href="#K"/><use transform="matrix(0.0107421875,0,0,0.0107421875,30.5615234375,0)" xlink:href="#R"/><use transform="matrix(0.0107421875,0,0,0.0107421875,42.796875,0)" xlink:href="#R"/><use transform="matrix(0.0107421875,0,0,0.0107421875,55.0322265625,0)" xlink:href="#Q"/><use transform="matrix(0.0107421875,0,0,0.0107421875,67.267578125,0)" xlink:href="#ab"/><use transform="matrix(0.0107421875,0,0,0.0107421875,80.7060546875,0)" xlink:href="#O"/><use transform="matrix(0.0107421875,0,0,0.0107421875,86.818359375,0)" xlink:href="#Y"/><use transform="matrix(0.0107421875,0,0,0.0107421875,100.2568359375,0)" xlink:href="#ab"/></g><path d="M1167 0l-161-412H364L202 0H4l575-1409h217L1362 0h-195zM685-1265c-69 226-179 482-263 704h527c-89-236-186-456-264-704" id="ac"/><path d="M476 20C225 20 133-99 133-361v-721h181v686c0 183 40 279 223 277 184-2 280-141 280-336v-627h180c3 345-6 754 6 1082H833c-5-68-6-94-8-185h-3C746-51 665 20 476 20" id="ad"/><path d="M336-268c2 98 22 139 114 141 24 0 59-5 104-14V-8C495 8 434 16 372 16c-144 0-216-82-216-245v-722H31v-131h132l53-242h120v242h200v131H336v683" id="ae"/><path d="M322-1484c-2 195 6 405-8 587h3c73-129 159-205 346-205 250 0 342 118 343 381V0H825v-686c3-190-43-277-223-277-176-1-280 140-280 325V0H142v-1484h180" id="af"/><g id="k"><use transform="matrix(0.00927734375,0,0,0.00927734375,0,0)" xlink:href="#ac"/><use transform="matrix(0.00927734375,0,0,0.00927734375,12.6728515625,0)" xlink:href="#ad"/><use transform="matrix(0.00927734375,0,0,0.00927734375,23.23974609375,0)" xlink:href="#ae"/><use transform="matrix(0.00927734375,0,0,0.00927734375,28.5185546875,0)" xlink:href="#af"/></g><path d="M496 424C268 175 127-92 127-532c0-438 143-704 369-952h174c-222 249-362 524-362 954 0 431 138 703 362 954H496" id="ag"/><path d="M813 20c-458 0-705-273-710-731-5-449 256-722 701-719 323 2 501 105 605 332l-182 54c-76-154-207-229-428-230-335-2-502 220-502 563 0 339 185 576 516 576 185 0 358-63 451-156v-254H843v-160h597v486C1303-77 1082 20 813 20" id="ah"/><path d="M571-1102c350 0 480 196 482 560 2 357-151 562-488 562C233 20 86-198 86-542c0-373 162-560 485-560zm-8 989c244 0 301-164 301-429 0-266-49-427-290-427-239 0-299 165-299 427 0 252 61 429 288 429" id="ai"/><path d="M824-897c-1-17 6-175 12-185h171c-12 319-6 716-6 1051 0 304-151 456-453 456-226 0-374-90-417-267l181-26c24 102 112 157 241 156 179 0 269-105 269-315 0-57 3-120-2-174C759-74 647 8 472 8 339 8 242-36 180-124S86-350 86-539c0-191 33-332 100-423s169-137 306-137c167 0 273 85 332 202zm-38 579c48-119 46-331 0-450-42-108-118-197-250-197-92 0-154 37-201 100-78 107-74 530-4 643 63 101 251 129 353 47 43-35 77-81 102-143" id="aj"/><path d="M138 0v-1484h180V0H138" id="ak"/><path d="M87-548c0-338 159-553 484-554 325-2 484 204 477 599H276c-1 227 88 385 302 388 146 2 246-65 283-166l158 45C954-65 807 20 578 20 240 20 87-193 87-548zm775-93c-19-206-90-328-294-328-185 0-285 140-290 328h584" id="al"/><path d="M0 20l411-1504h158L162 20H0" id="am"/><path d="M320-908c63-128 152-193 335-193 133 0 233 45 299 134s99 230 99 421c0 377-133 566-398 566-167 0-279-63-336-188h-5c8 141 2 428 4 593H138V-861c0-111-2-185-6-221h174c5 33 9 134 10 174h4zm-2 380c0 254 57 415 289 415 89 0 149-37 195-99 76-105 79-547 1-653-45-62-105-97-194-97-243 1-291 184-291 434" id="an"/><path d="M168 0v-1409h1069v156H359v452h818v154H359v491h919V0H168" id="ao"/><path d="M1195-963c-175 0-249 144-249 336V0H768v-686c-5-190-26-277-198-277-171 0-249 147-249 336V0H142c-3-345 6-754-6-1082h170c5 68 6 94 8 185h3c69-134 140-205 316-205 171 0 257 66 294 205h3c67-129 152-205 328-205 238 0 313 127 313 381V0h-178v-686c-5-190-26-277-198-277" id="ap"/><path d="M797-207C713-60 620 16 414 20 203 24 88-98 87-302c0-112 37-198 111-258s192-93 356-96l243-4c10-201-43-307-232-305-154 2-223 43-242 172l-188-17c31-195 175-292 434-292s410 116 410 364v466c3 95 12 159 101 161 17 0 37-2 59-7V-6c-45 11-92 16-139 16-143-2-188-76-197-217h-6zm-525-92c-1 116 66 187 183 184 230-7 361-164 342-419-124 5-305-2-389 30-83 32-136 92-136 205" id="aq"/><path d="M137-1312v-172h180v172H137zM137 0v-1082h180V0H137" id="ar"/><path d="M186-1484c228 249 369 516 369 956 0 438-143 704-369 952H12C235 172 374-97 374-530c0-431-140-704-362-954h174" id="as"/><g id="l"><use transform="matrix(0.00927734375,0,0,0.00927734375,0,0)" xlink:href="#ag"/><use transform="matrix(0.00927734375,0,0,0.00927734375,6.3271484375,0)" xlink:href="#ah"/><use transform="matrix(0.00927734375,0,0,0.00927734375,21.10595703125,0)" xlink:href="#ai"/><use transform="matrix(0.00927734375,0,0,0.00927734375,31.6728515625,0)" xlink:href="#ai"/><use transform="matrix(0.00927734375,0,0,0.00927734375,42.23974609375,0)" xlink:href="#aj"/><use transform="matrix(0.00927734375,0,0,0.00927734375,52.806640625,0)" xlink:href="#ak"/><use transform="matrix(0.00927734375,0,0,0.00927734375,57.02783203125,0)" xlink:href="#al"/><use transform="matrix(0.00927734375,0,0,0.00927734375,67.5947265625,0)" xlink:href="#am"/><use transform="matrix(0.00927734375,0,0,0.00927734375,72.87353515625,0)" xlink:href="#ac"/><use transform="matrix(0.00927734375,0,0,0.00927734375,85.54638671875,0)" xlink:href="#an"/><use transform="matrix(0.00927734375,0,0,0.00927734375,96.11328125,0)" xlink:href="#an"/><use transform="matrix(0.00927734375,0,0,0.00927734375,106.68017578125,0)" xlink:href="#ak"/><use transform="matrix(0.00927734375,0,0,0.00927734375,110.9013671875,0)" xlink:href="#al"/><use transform="matrix(0.00927734375,0,0,0.00927734375,121.46826171875,0)" xlink:href="#am"/><use transform="matrix(0.00927734375,0,0,0.00927734375,126.7470703125,0)" xlink:href="#ao"/><use transform="matrix(0.00927734375,0,0,0.00927734375,139.419921875,0)" xlink:href="#ap"/><use transform="matrix(0.00927734375,0,0,0.00927734375,155.2470703125,0)" xlink:href="#aq"/><use transform="matrix(0.00927734375,0,0,0.00927734375,165.81396484375,0)" xlink:href="#ar"/><use transform="matrix(0.00927734375,0,0,0.00927734375,170.03515625,0)" xlink:href="#ak"/><use transform="matrix(0.00927734375,0,0,0.00927734375,174.25634765625,0)" xlink:href="#as"/></g><path d="M692-1286c-195 0-347 51-347 223 0 101 58 144 134 179 135 62 487 105 623 191 97 62 170 147 170 304 0 130-50 231-152 302S875 20 690 20C347 20 148-99 93-338l185-37c46 178 190 245 419 246 213 0 386-61 386-250 0-223-244-222-431-271-182-48-288-69-390-156-64-54-103-133-103-247 0-121 47-214 139-279s224-98 396-98c318 0 471 80 545 324l-188 33c-44-155-158-213-359-213" id="at"/><path d="M779-765c-19-119-93-196-233-196-95 0-164 32-207 95s-64 170-64 320c0 144 23 251 68 320s114 104 205 104c139 0 224-79 240-212l182 12C946-119 781 22 553 20 230 17 87-201 87-542c0-338 145-557 464-560 225-1 380 129 413 323" id="au"/><path d="M816 0L450-494 318-385V0H138v-1484h180v927l475-525h211L565-617 1027 0H816" id="av"/><g id="m"><use transform="matrix(0.00927734375,0,0,0.00927734375,0,0)" xlink:href="#at"/><use transform="matrix(0.00927734375,0,0,0.00927734375,12.6728515625,0)" xlink:href="#ae"/><use transform="matrix(0.00927734375,0,0,0.00927734375,17.95166015625,0)" xlink:href="#ai"/><use transform="matrix(0.00927734375,0,0,0.00927734375,28.5185546875,0)" xlink:href="#au"/><use transform="matrix(0.00927734375,0,0,0.00927734375,38.0185546875,0)" xlink:href="#av"/><use transform="matrix(0.00927734375,0,0,0.00927734375,47.5185546875,0)" xlink:href="#aq"/><use transform="matrix(0.00927734375,0,0,0.00927734375,58.08544921875,0)" xlink:href="#aj"/><use transform="matrix(0.00927734375,0,0,0.00927734375,68.65234375,0)" xlink:href="#al"/></g><path d="M513-963c-139 1-238 29-238 149 0 72 41 100 95 127 55 27 348 94 404 125 101 56 176 118 176 263C950-73 758 21 511 20 254 19 107-55 57-254l159-31c34 123 133 168 295 168 156 0 264-34 264-168 0-156-183-165-315-204-171-51-245-68-323-172-26-35-37-82-37-135 0-220 172-304 413-303 232 1 379 74 418 265l-162 20c-23-104-122-150-256-149" id="aw"/><path d="M663-1102c251 0 343 119 343 381V0H825v-686c0-183-40-279-223-277-184 2-280 141-280 336V0H142c-3-345 6-754-6-1082h170c5 68 6 94 8 185h3c76-134 157-205 346-205" id="ax"/><path d="M385-51c0 144-24 223-78 313H184c63-91 94-178 94-262h-88v-219h195v168" id="ay"/><g id="n"><use transform="matrix(0.00927734375,0,0,0.00927734375,0,0)" xlink:href="#aw"/><use transform="matrix(0.00927734375,0,0,0.00927734375,9.5,0)" xlink:href="#al"/><use transform="matrix(0.00927734375,0,0,0.00927734375,20.06689453125,0)" xlink:href="#aw"/><use transform="matrix(0.00927734375,0,0,0.00927734375,29.56689453125,0)" xlink:href="#aw"/><use transform="matrix(0.00927734375,0,0,0.00927734375,39.06689453125,0)" xlink:href="#ar"/><use transform="matrix(0.00927734375,0,0,0.00927734375,43.2880859375,0)" xlink:href="#ai"/><use transform="matrix(0.00927734375,0,0,0.00927734375,53.85498046875,0)" xlink:href="#ax"/><use transform="matrix(0.00927734375,0,0,0.00927734375,64.421875,0)" xlink:href="#aw"/><use transform="matrix(0.00927734375,0,0,0.00927734375,73.921875,0)" xlink:href="#ay"/></g><path d="M318-861c55-157 83-241 257-241 24 0 48 3 73 10v165c-24-7-56-10-96-10-75 0-132 33-171 97s-59 156-59 276V0H142c-3-364 6-725-6-1082h170c5 123 8 196 8 221h4" id="az"/><g id="o"><use transform="matrix(0.00927734375,0,0,0.00927734375,0,0)" xlink:href="#ad"/><use transform="matrix(0.00927734375,0,0,0.00927734375,10.56689453125,0)" xlink:href="#aw"/><use transform="matrix(0.00927734375,0,0,0.00927734375,20.06689453125,0)" xlink:href="#al"/><use transform="matrix(0.00927734375,0,0,0.00927734375,30.6337890625,0)" xlink:href="#az"/><use transform="matrix(0.00927734375,0,0,0.00927734375,36.9609375,0)" xlink:href="#aw"/><use transform="matrix(0.00927734375,0,0,0.00927734375,46.4609375,0)" xlink:href="#ay"/></g><g id="p"><use transform="matrix(0.00927734375,0,0,0.00927734375,0,0)" xlink:href="#an"/><use transform="matrix(0.00927734375,0,0,0.00927734375,10.56689453125,0)" xlink:href="#ai"/><use transform="matrix(0.00927734375,0,0,0.00927734375,21.1337890625,0)" xlink:href="#ar"/><use transform="matrix(0.00927734375,0,0,0.00927734375,25.35498046875,0)" xlink:href="#ax"/><use transform="matrix(0.00927734375,0,0,0.00927734375,35.921875,0)" xlink:href="#ae"/><use transform="matrix(0.00927734375,0,0,0.00927734375,41.20068359375,0)" xlink:href="#aw"/></g><path d="M720-1253V0H530v-1253H46v-156h1158v156H720" id="aA"/><g id="q"><use transform="matrix(0.00927734375,0,0,0.00927734375,0,0)" xlink:href="#aA"/><use transform="matrix(0.00927734375,0,0,0.00927734375,10.90087890625,0)" xlink:href="#az"/><use transform="matrix(0.00927734375,0,0,0.00927734375,17.22802734375,0)" xlink:href="#aq"/><use transform="matrix(0.00927734375,0,0,0.00927734375,27.794921875,0)" xlink:href="#ar"/><use transform="matrix(0.00927734375,0,0,0.00927734375,32.01611328125,0)" xlink:href="#ae"/><use transform="matrix(0.00927734375,0,0,0.00927734375,37.294921875,0)" xlink:href="#al"/><use transform="matrix(0.00927734375,0,0,0.00927734375,47.86181640625,0)" xlink:href="#ap"/><use transform="matrix(0.00927734375,0,0,0.00927734375,63.68896484375,0)" xlink:href="#al"/><use transform="matrix(0.00927734375,0,0,0.00927734375,74.255859375,0)" xlink:href="#ax"/><use transform="matrix(0.00927734375,0,0,0.00927734375,84.82275390625,0)" xlink:href="#ae"/></g><g id="r"><use transform="matrix(0.00927734375,0,0,0.00927734375,0,0)" xlink:href="#aw"/><use transform="matrix(0.00927734375,0,0,0.00927734375,9.5,0)" xlink:href="#au"/><use transform="matrix(0.00927734375,0,0,0.00927734375,19,0)" xlink:href="#ai"/><use transform="matrix(0.00927734375,0,0,0.00927734375,29.56689453125,0)" xlink:href="#az"/><use transform="matrix(0.00927734375,0,0,0.00927734375,35.89404296875,0)" xlink:href="#ar"/><use transform="matrix(0.00927734375,0,0,0.00927734375,40.115234375,0)" xlink:href="#ax"/><use transform="matrix(0.00927734375,0,0,0.00927734375,50.68212890625,0)" xlink:href="#aj"/><use transform="matrix(0.00927734375,0,0,0.00927734375,61.2490234375,0)" xlink:href="#ay"/></g><path d="M655-1102c307 0 398 221 398 556 0 377-133 566-398 566-180 0-272-66-339-188 1 22-7 151-10 168H132c4-36 6-110 6-223v-1261h180c-2 196 4 384-4 576h4c62-129 158-194 337-194zM318-529c0 254 57 416 289 416 91 0 152-37 197-101 76-109 76-543 0-651-44-63-105-98-195-98-236 0-291 169-291 434" id="aB"/><path d="M835 0c-5-29-11-137-10-174h-4C759-45 663 20 484 20 177 20 86-201 86-536c0-377 133-566 398-566 178 1 273 67 339 188-4-187-1-380-2-570h180v1261c0 113 2 187 6 223H835zm-14-554c0-255-58-415-289-415-91 0-151 37-196 101-76 109-77 543-1 651 44 63 105 98 195 98 235 0 291-173 291-435" id="aC"/><g id="s"><use transform="matrix(0.00927734375,0,0,0.00927734375,0,0)" xlink:href="#aB"/><use transform="matrix(0.00927734375,0,0,0.00927734375,10.56689453125,0)" xlink:href="#aq"/><use transform="matrix(0.00927734375,0,0,0.00927734375,21.1337890625,0)" xlink:href="#aC"/><use transform="matrix(0.00927734375,0,0,0.00927734375,31.70068359375,0)" xlink:href="#aj"/><use transform="matrix(0.00927734375,0,0,0.00927734375,42.267578125,0)" xlink:href="#al"/><use transform="matrix(0.00927734375,0,0,0.00927734375,52.83447265625,0)" xlink:href="#aw"/></g><path d="M1082 0L328-1200c20 384 6 801 10 1200H168v-1409h222l762 1208c-25-412-6-786-12-1208h172V0h-230" id="aD"/><path d="M492-1341c-103 3-130 49-131 162v97h211v131H361V0H181v-951H29v-131h152v-122c0-192 78-276 264-278 50 0 92 4 127 12v137c-30-5-57-8-80-8" id="aE"/><g id="t"><use transform="matrix(0.00927734375,0,0,0.00927734375,0,0)" xlink:href="#aD"/><use transform="matrix(0.00927734375,0,0,0.00927734375,13.72119140625,0)" xlink:href="#ai"/><use transform="matrix(0.00927734375,0,0,0.00927734375,24.2880859375,0)" xlink:href="#ae"/><use transform="matrix(0.00927734375,0,0,0.00927734375,29.56689453125,0)" xlink:href="#ar"/><use transform="matrix(0.00927734375,0,0,0.00927734375,33.7880859375,0)" xlink:href="#aE"/><use transform="matrix(0.00927734375,0,0,0.00927734375,39.06689453125,0)" xlink:href="#ar"/><use transform="matrix(0.00927734375,0,0,0.00927734375,43.2880859375,0)" xlink:href="#au"/><use transform="matrix(0.00927734375,0,0,0.00927734375,52.7880859375,0)" xlink:href="#aq"/><use transform="matrix(0.00927734375,0,0,0.00927734375,63.35498046875,0)" xlink:href="#ae"/><use transform="matrix(0.00927734375,0,0,0.00927734375,68.6337890625,0)" xlink:href="#ar"/><use transform="matrix(0.00927734375,0,0,0.00927734375,72.85498046875,0)" xlink:href="#ai"/><use transform="matrix(0.00927734375,0,0,0.00927734375,83.421875,0)" xlink:href="#ax"/><use transform="matrix(0.00927734375,0,0,0.00927734375,93.98876953125,0)" xlink:href="#aw"/></g><path d="M685-1417c188 0 338 102 336 284 0 79-30 149-91 210S763-801 612-741c74 137 172 274 293 412 75-111 132-247 171-410l145 43c-42 166-113 322-212 469 89 95 194 118 325 82v135C1168 42 998 1 895-115 806-37 679 19 523 20 254 24 72-114 72-371c0-185 114-328 343-429-38-70-81-200-81-302 0-207 137-315 351-315zm-2 121c-125 0-196 72-196 194 0 76 22 157 65 244 140-60 215-85 286-176 23-29 31-63 31-99 0-100-80-163-186-163zM240-373c-1 165 119 265 289 262 109-2 206-47 266-106-132-156-238-308-319-457-157 67-236 167-236 301" id="aF"/><use transform="matrix(0.00927734375,0,0,0.00927734375,0,0)" xlink:href="#aF" id="u"/><g id="v"><use transform="matrix(0.00927734375,0,0,0.00927734375,0,0)" xlink:href="#az"/><use transform="matrix(0.00927734375,0,0,0.00927734375,6.3271484375,0)" xlink:href="#aq"/><use transform="matrix(0.00927734375,0,0,0.00927734375,16.89404296875,0)" xlink:href="#an"/><use transform="matrix(0.00927734375,0,0,0.00927734375,27.4609375,0)" xlink:href="#an"/><use transform="matrix(0.00927734375,0,0,0.00927734375,38.02783203125,0)" xlink:href="#al"/><use transform="matrix(0.00927734375,0,0,0.00927734375,48.5947265625,0)" xlink:href="#ak"/><use transform="matrix(0.00927734375,0,0,0.00927734375,52.81591796875,0)" xlink:href="#aw"/></g></defs></g></svg>